<svg xmlns="http://www.w3.org/2000/svg" viewBox="0 0 100 100">
  <g fill="#646cff">
    <path d="M50 0C22.387 0 0 22.387 0 50s22.387 50 50 50 50-22.387 50-50S77.613 0 50 0zm0 93.75C26.25 93.75 6.25 73.75 6.25 50S26.25 6.25 50 6.25 93.75 26.25 93.75 50 73.75 93.75 50 93.75z"/>
    <path d="M50 12.5c-20.5 0-37.5 17-37.5 37.5S29.5 87.5 50 87.5 87.5 70.5 87.5 50 70.5 12.5 50 12.5zm0 68.75c-17.187 0-31.25-14.063-31.25-31.25S32.813 18.75 50 18.75 81.25 32.813 81.25 50 67.187 81.25 50 81.25z"/>
  </g>
  <g fill="#fff">
    <path d="M50 25c-13.75 0-25 11.25-25 25s11.25 25 25 25 25-11.25 25-25-11.25-25-25-25zm0 43.75c-10.125 0-18.75-8.625-18.75-18.75S39.875 31.25 50 31.25 68.75 39.875 68.75 50 60.125 68.75 50 68.75z"/>
  </g>
</svg>